<svg width="16" height="15" viewBox="0 0 16 15" fill="none" xmlns="http://www.w3.org/2000/svg">
    <path
        d="M7.99881 0.734162C4.11496 0.732554 0.969246 3.95106 0.969246 7.92355C0.969246 11.0649 2.93708 13.7352 5.67761 14.7158C6.04667 14.8107 5.99014 14.5422 5.99014 14.3589V13.113C3.85897 13.3686 3.77259 11.925 3.62967 11.6838C3.3407 11.179 2.65753 11.0504 2.8617 10.8093C3.34698 10.5536 3.84169 10.8736 4.41492 11.7401C4.82954 12.3687 5.63834 12.2626 6.04824 12.1581C6.13776 11.7803 6.32936 11.4427 6.59321 11.1806C4.38508 10.7755 3.46477 9.39615 3.46477 7.75635C3.46477 6.96057 3.72076 6.22909 4.22332 5.63908C3.90294 4.66646 4.25316 3.8337 4.30028 3.70991C5.21274 3.62631 6.16132 4.37869 6.23513 4.43817C6.7534 4.29509 7.34548 4.21953 8.00823 4.21953C8.67412 4.21953 9.26777 4.29831 9.79075 4.443C9.96821 4.30474 10.8477 3.65847 11.6958 3.73724C11.7413 3.86103 12.0837 4.6745 11.7821 5.63426C12.291 6.22587 12.5501 6.96378 12.5501 7.76117C12.5501 9.40419 11.6235 10.7852 9.40911 11.1838C9.59878 11.3748 9.74938 11.6025 9.85212 11.8537C9.95486 12.1049 10.0077 12.3745 10.0075 12.6468V14.4554C10.02 14.6001 10.0075 14.7432 10.243 14.7432C13.0244 13.7834 15.0268 11.0938 15.0268 7.92515C15.0268 3.95106 11.8795 0.734162 7.99881 0.734162V0.734162Z"
        fill="white" />
</svg>
    