<svg width="373" height="334" viewBox="0 0 373 334" fill="none" xmlns="http://www.w3.org/2000/svg">
    <path
        d="M296.724 239.333C294.867 240.49 292.98 241.613 291.066 242.702C290.869 242.342 290.417 242.215 290.054 242.419C289.443 242.764 288.828 243.105 288.211 243.443C288.452 242.739 288.677 242.043 288.888 241.355C289.01 240.956 288.789 240.539 288.395 240.423C288.394 240.423 288.392 240.423 288.391 240.422C289.017 238.287 289.494 236.239 289.831 234.273C289.833 234.273 289.835 234.274 289.837 234.274C290.245 234.33 290.627 234.042 290.691 233.63C291.124 230.829 291.274 228.187 291.159 225.695C291.139 225.28 290.79 224.966 290.377 224.994C290.374 224.994 290.372 224.994 290.369 224.995C290.219 222.82 289.859 220.771 289.306 218.837C289.31 218.836 289.313 218.835 289.316 218.834C289.71 218.701 289.928 218.274 289.804 217.88C288.991 215.301 287.836 212.928 286.38 210.742C286.152 210.4 285.688 210.315 285.344 210.551C285.341 210.553 285.339 210.555 285.336 210.556C284.158 208.883 282.793 207.324 281.261 205.87C281.263 205.868 281.265 205.866 281.266 205.864C281.547 205.553 281.528 205.078 281.225 204.802C279.349 203.093 277.248 201.533 274.956 200.106C274.608 199.889 274.146 200.001 273.923 200.356C273.922 200.357 273.922 200.359 273.921 200.36C272.188 199.316 270.346 198.342 268.407 197.432C268.408 197.431 268.408 197.43 268.409 197.429C268.585 197.05 268.426 196.604 268.053 196.434C265.756 195.386 263.334 194.425 260.807 193.541C260.419 193.405 259.99 193.614 259.848 194.006C259.847 194.007 259.847 194.008 259.847 194.009C257.915 193.349 255.923 192.732 253.877 192.153C253.877 192.152 253.877 192.152 253.878 192.151C253.994 191.75 253.768 191.336 253.372 191.226C250.923 190.548 248.403 189.923 245.826 189.343C245.425 189.253 245.021 189.509 244.924 189.914C244.923 189.915 244.923 189.915 244.923 189.916C242.911 189.472 240.866 189.055 238.793 188.661C238.793 188.661 238.793 188.66 238.793 188.66C238.876 188.251 238.615 187.859 238.211 187.783C235.69 187.313 233.132 186.875 230.55 186.466C230.143 186.401 229.755 186.682 229.683 187.092C229.683 187.093 229.683 187.093 229.683 187.093C227.629 186.772 225.56 186.467 223.481 186.176C223.481 186.176 223.481 186.175 223.481 186.175C223.545 185.763 223.267 185.384 222.859 185.327C220.298 184.973 217.725 184.638 215.152 184.316C214.743 184.265 214.364 184.558 214.305 184.971C214.305 184.971 214.305 184.971 214.305 184.971C212.227 184.714 210.15 184.465 208.078 184.221C208.078 184.221 208.078 184.221 208.078 184.221C208.134 183.808 207.848 183.434 207.439 183.387C205.311 183.137 203.192 182.893 201.087 182.651C200.634 182.599 200.181 182.546 199.729 182.494C199.32 182.447 198.944 182.744 198.889 183.157C196.796 182.915 194.721 182.674 192.668 182.43C192.725 182.018 192.439 181.643 192.03 181.595C189.425 181.283 186.86 180.966 184.348 180.637C183.94 180.583 183.56 180.873 183.498 181.285C181.39 181.006 179.321 180.716 177.299 180.413C177.368 180.002 177.095 179.62 176.688 179.558C174.056 179.156 171.507 178.731 169.061 178.271C168.658 178.196 168.263 178.465 168.179 178.872C166.048 178.463 163.996 178.026 162.035 177.556C162.139 177.153 161.901 176.747 161.503 176.649C158.852 175.995 156.382 175.277 154.124 174.481C153.738 174.345 153.31 174.551 153.165 174.941C151.092 174.18 149.2 173.347 147.515 172.43C147.719 172.07 147.601 171.616 147.248 171.412C144.821 170.014 142.909 168.44 141.568 166.658C141.326 166.336 140.869 166.273 140.539 166.514C139.386 164.788 138.703 162.86 138.554 160.697C138.957 160.672 139.276 160.33 139.271 159.922C139.246 157.784 139.754 155.373 140.897 152.645C141.058 152.263 140.885 151.828 140.511 151.67C141.286 149.943 142.297 148.11 143.558 146.163C143.899 146.386 144.361 146.288 144.592 145.941C145.306 144.872 146.096 143.766 146.965 142.624C147.021 142.551 147.063 142.469 147.089 142.382C147.479 141.109 147.863 139.847 148.242 138.596C148.364 138.196 148.142 137.78 147.747 137.666C147.747 137.666 147.747 137.666 147.747 137.666C148.368 135.614 148.977 133.591 149.575 131.595C149.575 131.595 149.575 131.595 149.575 131.595C149.97 131.708 150.388 131.475 150.507 131.075C151.271 128.522 152.018 126.015 152.749 123.555C152.868 123.155 152.644 122.74 152.249 122.628C152.413 122.075 152.577 121.525 152.74 120.977C153.183 119.487 153.621 118.013 154.054 116.557C154.45 116.669 154.867 116.435 154.986 116.035C155.751 113.468 156.502 110.955 157.243 108.497C157.364 108.097 157.142 107.681 156.747 107.567C157.369 105.506 157.986 103.484 158.598 101.499C158.992 101.615 159.411 101.386 159.534 100.987C160.323 98.4358 161.106 95.9481 161.888 93.5232C162.016 93.1258 161.802 92.7054 161.41 92.584C162.077 90.5244 162.743 88.5101 163.413 86.5406C163.803 86.6686 164.228 86.4522 164.363 86.0572C165.23 83.5256 166.101 81.0703 166.984 78.6904C167.129 78.2989 166.934 77.8693 166.549 77.7302C167.309 75.6987 168.08 73.7219 168.864 71.7993C169.244 71.9512 169.681 71.7618 169.841 71.3758C170.864 68.8958 171.91 66.5094 172.99 64.2151C173.168 63.8373 173.012 63.392 172.64 63.2195C173.572 61.269 174.529 59.3846 175.517 57.5656C175.877 57.7603 176.331 57.6226 176.533 57.2572C177.824 54.9211 179.168 52.698 180.578 50.5859C180.81 50.2388 180.723 49.7741 180.384 49.5462C181.596 47.7678 182.857 46.0674 184.175 44.4442C184.49 44.7042 184.959 44.6556 185.226 44.3347C186.899 42.3202 188.664 40.4302 190.537 38.6623C190.84 38.3764 190.861 37.9025 190.585 37.6018C192.138 36.1722 193.763 34.823 195.472 33.5531C195.709 33.8856 196.173 33.9577 196.51 33.7137C198.568 32.2232 200.746 30.8461 203.061 29.5808C203.425 29.3816 203.567 28.9267 203.378 28.5629C205.198 27.5956 207.098 26.6955 209.087 25.8618C209.237 26.2442 209.668 26.4274 210.052 26.271C212.359 25.3315 214.786 24.4796 217.346 23.7144C217.742 23.5958 217.975 23.1784 217.867 22.781C219.827 22.2127 221.862 21.6943 223.976 21.2252C224.056 21.6302 224.447 21.8879 224.851 21.8011C226.096 21.5338 227.369 21.2834 228.671 21.0498C229.956 20.8191 231.246 20.6129 232.539 20.4311C232.948 20.3736 233.24 19.9947 233.192 19.5841C235.302 19.3029 237.42 19.086 239.543 18.9328C239.563 19.3463 239.912 19.6593 240.323 19.6326C242.922 19.4634 245.528 19.3903 248.136 19.4121C248.547 19.4156 248.891 19.0828 248.904 18.6684C251.024 18.7008 253.145 18.7956 255.263 18.9522C255.223 19.3655 255.522 19.7268 255.932 19.7599C258.521 19.9691 261.104 20.2713 263.676 20.6656C264.082 20.7278 264.468 20.4465 264.539 20.0369C266.627 20.3715 268.708 20.7665 270.777 21.2212C270.68 21.626 270.925 22.027 271.326 22.1178C273.852 22.691 276.362 23.3541 278.847 24.1062C279.24 24.2249 279.66 23.9997 279.786 23.6029C281.802 24.2277 283.802 24.9109 285.783 25.6518C285.632 26.0402 285.819 26.4727 286.201 26.6188C288.618 27.5412 291.004 28.5503 293.355 29.6454C293.726 29.8182 294.172 29.6533 294.352 29.2771C296.256 30.1796 298.137 31.1384 299.99 32.1528C299.787 32.5172 299.911 32.973 300.269 33.1719C302.525 34.427 304.741 35.7657 306.91 37.187C307.252 37.4112 307.715 37.3107 307.946 36.9628C309.698 38.1283 311.419 39.3477 313.106 40.6207C312.854 40.9533 312.913 41.4235 313.238 41.6721C315.285 43.2394 317.282 44.8867 319.221 46.6129C319.527 46.8849 319.998 46.8522 320.275 46.5403C321.835 47.9493 323.359 49.4095 324.841 50.9207C324.545 51.2139 324.535 51.689 324.819 51.9832C326.61 53.8344 328.34 55.7613 330.005 57.7628C330.267 58.0777 330.736 58.1148 331.055 57.8462C332.387 59.4719 333.677 61.1459 334.92 62.8677C334.585 63.1145 334.506 63.5843 334.743 63.9183C336.235 66.0149 337.659 68.1818 339.01 70.4184C339.222 70.7696 339.68 70.876 340.034 70.6568C341.109 72.4654 342.137 74.3187 343.116 76.2161C342.749 76.4115 342.602 76.8659 342.788 77.2323C343.95 79.5253 345.04 81.8827 346.053 84.3037C346.211 84.6832 346.648 84.8556 347.028 84.6897C347.827 86.6366 348.576 88.624 349.274 90.6513C348.884 90.7925 348.675 91.2225 348.807 91.6129C349.629 94.0544 350.376 96.554 351.044 99.1109C351.149 99.5101 351.556 99.7424 351.954 99.6309C352.473 101.668 352.942 103.741 353.359 105.85C352.955 105.937 352.69 106.336 352.768 106.742C353.013 108.022 353.239 109.315 353.445 110.621C353.657 111.958 353.851 113.285 354.028 114.602C354.083 115.012 354.459 115.293 354.867 115.23C355.153 117.419 355.392 119.582 355.586 121.719C355.175 121.764 354.871 122.134 354.907 122.547C355.14 125.26 355.3 127.931 355.389 130.56C355.403 130.974 355.748 131.293 356.16 131.271C356.223 133.486 356.236 135.671 356.2 137.827C355.788 137.827 355.447 138.163 355.438 138.578C355.378 141.296 355.239 143.967 355.023 146.59C354.989 147.004 355.294 147.361 355.704 147.388C355.51 149.599 355.261 151.777 354.96 153.921C354.552 153.87 354.174 154.161 354.113 154.572C353.719 157.261 353.241 159.897 352.683 162.481C352.596 162.887 352.85 163.283 353.252 163.364C352.77 165.528 352.232 167.656 351.64 169.748C351.244 169.64 350.83 169.876 350.714 170.277C349.957 172.883 349.115 175.432 348.192 177.924C348.047 178.315 348.241 178.744 348.626 178.884C347.843 180.954 347.004 182.986 346.11 184.98C345.736 184.814 345.293 184.987 345.12 185.367C343.997 187.827 342.791 190.227 341.506 192.57C341.305 192.936 341.433 193.39 341.791 193.587C340.715 195.516 339.585 197.406 338.404 199.257C338.06 199.037 337.597 199.142 337.37 199.492C335.905 201.754 334.363 203.956 332.746 206.099C332.495 206.432 332.555 206.903 332.88 207.15C331.542 208.9 330.156 210.611 328.723 212.283C328.414 212.014 327.943 212.052 327.669 212.368C325.908 214.396 324.078 216.366 322.182 218.28C321.888 218.576 321.884 219.052 322.171 219.343C320.616 220.893 319.019 222.406 317.381 223.882C317.11 223.575 316.639 223.55 316.328 223.828C314.326 225.61 312.265 227.338 310.148 229.011C309.82 229.27 309.758 229.742 310.007 230.067C308.281 231.416 306.518 232.73 304.722 234.008C304.49 233.671 304.026 233.591 303.685 233.831C301.498 235.371 299.26 236.859 296.977 238.296C296.624 238.518 296.511 238.982 296.724 239.333Z"
        stroke="#4E4E4E" stroke-width="1.5" stroke-linecap="round" stroke-linejoin="round"
        stroke-dasharray="8 8" />
    <path
        d="M295.422 226.878C294.088 228.606 292.696 230.327 291.246 232.047C290.935 231.781 290.464 231.824 290.193 232.142C289.34 233.144 288.468 234.146 287.577 235.149C286.477 235.974 285.411 236.75 284.338 237.492C283.995 237.729 283.902 238.196 284.129 238.537C282.335 239.753 280.495 240.892 278.424 242.03C278.235 241.667 277.786 241.531 277.42 241.728C275.299 242.866 272.922 244.014 270.096 245.249C269.716 245.416 269.535 245.858 269.691 246.239C267.838 247.038 265.799 247.874 263.525 248.768C263.382 248.381 262.953 248.19 262.566 248.341C260.27 249.237 257.739 250.19 254.923 251.223C254.533 251.366 254.326 251.798 254.46 252.188C252.513 252.899 250.433 253.647 248.207 254.437C248.077 254.045 247.654 253.84 247.262 253.979C244.864 254.829 242.297 255.727 239.545 256.683C239.152 256.819 238.937 257.247 239.065 257.64C237.064 258.334 234.966 259.057 232.765 259.812C232.639 259.419 232.218 259.209 231.825 259.344C229.381 260.182 226.811 261.059 224.107 261.979C223.714 262.113 223.496 262.541 223.622 262.934C221.592 263.624 219.487 264.339 217.303 265.078C217.179 264.685 216.759 264.474 216.365 264.607C215.094 265.038 213.796 265.477 212.472 265.925C211.182 266.361 209.876 266.749 208.554 267.089C208.154 267.192 207.906 267.599 207.997 268C205.814 268.533 203.593 268.939 201.342 269.223C201.302 268.813 200.938 268.518 200.529 268.565C197.853 268.871 195.134 269.006 192.387 268.978C191.976 268.973 191.632 269.305 191.618 269.718C189.391 269.672 187.147 269.52 184.894 269.267C184.949 268.855 184.665 268.482 184.258 268.433C181.595 268.108 178.918 267.641 176.242 267.04C175.842 266.95 175.439 267.205 175.34 267.609C173.174 267.103 171.01 266.51 168.853 265.835C168.983 265.44 168.774 265.018 168.384 264.893C165.827 264.07 163.282 263.13 160.759 262.08C160.381 261.923 159.942 262.105 159.777 262.488C157.731 261.619 155.701 260.678 153.693 259.669C153.884 259.298 153.744 258.847 153.38 258.661C150.978 257.433 148.608 256.106 146.279 254.687C145.93 254.474 145.47 254.59 145.251 254.945C143.358 253.773 141.493 252.541 139.662 251.252C139.903 250.911 139.83 250.443 139.497 250.206C137.296 248.634 135.145 246.978 133.054 245.244C132.739 244.983 132.269 245.032 132.003 245.353C130.293 243.916 128.624 242.427 127.002 240.889C127.288 240.586 127.282 240.111 126.987 239.827C125.029 237.947 123.142 235.995 121.334 233.976C121.061 233.671 120.59 233.651 120.281 233.931C118.798 232.252 117.369 230.529 116 228.763C116.327 228.505 116.391 228.034 116.142 227.708C114.489 225.545 112.927 223.322 111.466 221.043C111.245 220.698 110.784 220.604 110.436 220.832C109.238 218.932 108.11 216.995 107.056 215.024C107.42 214.823 107.56 214.367 107.369 214.004C106.103 211.588 104.95 209.122 103.92 206.612C103.764 206.231 103.33 206.056 102.948 206.218C102.112 204.128 101.361 202.007 100.7 199.86C101.094 199.732 101.318 199.31 101.2 198.915C100.423 196.303 99.7816 193.652 99.286 190.968C99.2111 190.563 98.8232 190.301 98.4186 190.382C98.0319 188.164 97.7439 185.925 97.5606 183.667C97.9704 183.627 98.2784 183.262 98.2492 182.85C98.0574 180.14 98.0182 177.404 98.1416 174.649C98.1602 174.234 97.8431 173.89 97.4326 173.877C97.5571 171.631 97.7889 169.371 98.1334 167.102C98.5393 167.159 98.9215 166.874 98.9882 166.463C99.4216 163.797 100.013 161.118 100.771 158.43C100.884 158.03 100.656 157.619 100.261 157.512C100.89 155.366 101.624 153.216 102.468 151.064C102.849 151.212 103.283 151.019 103.439 150.632C103.953 149.359 104.505 148.085 105.098 146.81C105.665 145.593 106.224 144.375 106.777 143.158C106.95 142.778 106.786 142.334 106.411 142.167C106.411 142.167 106.411 142.167 106.411 142.167C107.307 140.186 108.186 138.207 109.048 136.233C109.048 136.233 109.048 136.233 109.048 136.233C109.426 136.393 109.867 136.213 110.034 135.829C111.107 133.363 112.154 130.904 113.179 128.456C113.341 128.07 113.164 127.632 112.784 127.477C112.783 127.477 112.783 127.477 112.783 127.477C113.621 125.469 114.443 123.469 115.252 121.478C115.252 121.478 115.252 121.478 115.252 121.478C115.634 121.628 116.071 121.436 116.227 121.048C117.24 118.549 118.23 116.065 119.201 113.601C119.355 113.212 119.168 112.778 118.785 112.631C118.785 112.631 118.785 112.631 118.785 112.631C119.584 110.599 120.371 108.58 121.146 106.578C121.146 106.578 121.146 106.578 121.146 106.578C121.53 106.722 121.964 106.523 122.115 106.133C123.089 103.613 124.045 101.119 124.987 98.6558C125.136 98.2654 124.945 97.8333 124.56 97.6907C125.074 96.346 125.583 95.0105 126.089 93.685C126.351 92.9981 126.612 92.3139 126.872 91.6325C127.257 91.7749 127.69 91.5738 127.839 91.1833C128.805 88.6511 129.759 86.1589 130.702 83.712C130.853 83.3221 130.663 82.8894 130.279 82.7456C131.072 80.6925 131.859 78.6716 132.641 76.6862C133.024 76.833 133.459 76.6371 133.613 76.2484C134.613 73.7182 135.606 71.2479 136.596 68.844C136.755 68.4577 136.576 68.0208 136.195 67.8678C137.042 65.8212 137.888 63.8232 138.735 61.8782C139.112 62.0392 139.553 61.8597 139.721 61.4771C140.822 58.9663 141.926 56.5479 143.037 54.2309C143.218 53.8543 143.064 53.4075 142.694 53.2324C143.67 51.2177 144.654 49.2803 145.648 47.4268C146.009 47.6194 146.463 47.4786 146.662 47.1118C147.99 44.6712 149.337 42.3854 150.712 40.2686C150.939 39.9186 150.846 39.4553 150.504 39.2319C151.755 37.3449 153.031 35.5937 154.34 33.9893C154.653 34.2501 155.122 34.2039 155.39 33.8849C157.185 31.7477 159.034 29.8999 160.955 28.3648C161.279 28.1059 161.341 27.6371 161.094 27.3137C162.874 25.9609 164.721 24.8618 166.649 24.0378C166.795 24.4174 167.22 24.6038 167.603 24.4545C169.96 23.5377 172.442 23.0414 175.08 23.0065C175.489 23.0011 175.823 22.6663 175.832 22.2561C177.854 22.2936 179.961 22.5901 182.164 23.1621C182.05 23.5598 182.274 23.9704 182.666 24.0819C183.85 24.4182 185.064 24.8356 186.311 25.3374C187.504 25.8171 188.714 26.2956 189.94 26.7741C190.322 26.9232 190.758 26.7297 190.914 26.3417C190.914 26.3415 190.914 26.3414 190.914 26.3412C192.84 27.0888 194.805 27.8372 196.803 28.591C196.803 28.5911 196.803 28.5911 196.803 28.5912C196.652 28.9809 196.841 29.414 197.225 29.5585C199.105 30.2661 201.014 30.9788 202.946 31.7C203.471 31.8962 203.998 32.093 204.527 32.2905C204.911 32.4341 205.345 32.2344 205.495 31.8444C207.445 32.5732 209.417 33.3124 211.405 34.0655C211.252 34.4547 211.44 34.8881 211.824 35.0338C214.227 35.9465 216.652 36.8798 219.092 37.8404C219.473 37.9907 219.91 37.7988 220.067 37.4116C222.009 38.1797 223.959 38.9656 225.913 39.7724C225.75 40.1569 225.924 40.5959 226.303 40.7532C228.684 41.7419 231.069 42.762 233.45 43.8196C233.824 43.986 234.268 43.8127 234.441 43.4325C236.354 44.288 238.264 45.1681 240.167 46.0759C239.984 46.4514 240.135 46.8994 240.504 47.0769C242.83 48.1955 245.144 49.3557 247.439 50.5633C247.802 50.7541 248.255 50.6101 248.452 50.2418C250.305 51.226 252.146 52.2415 253.97 53.2915C253.759 53.6522 253.875 54.111 254.229 54.3168C256.46 55.614 258.664 56.9633 260.834 58.3701C261.178 58.5927 261.641 58.4898 261.869 58.1402C263.624 59.2905 265.357 60.479 267.063 61.7086C266.818 62.0467 266.887 62.5156 267.217 62.7567C269.3 64.2749 271.34 65.8552 273.332 67.5031C273.647 67.7639 274.117 67.7144 274.383 67.3927C275.99 68.7386 277.565 70.1292 279.103 71.5673C278.819 71.8728 278.829 72.3476 279.126 72.629C280.991 74.3958 282.802 76.2337 284.55 78.1479C284.826 78.4502 285.297 78.4656 285.604 78.1829C287.002 79.7364 288.361 81.3396 289.676 82.9953C289.351 83.2567 289.293 83.7291 289.545 84.0518C291.122 86.0687 292.634 88.163 294.073 90.3395C294.3 90.6815 294.761 90.7692 295.106 90.5361C296.242 92.2825 297.333 94.0812 298.374 95.9344C298.014 96.1424 297.883 96.6013 298.081 96.9607C299.315 99.195 300.477 101.509 301.561 103.906C301.731 104.281 302.172 104.44 302.548 104.264C303.391 106.165 304.186 108.118 304.931 110.125C304.545 110.275 304.345 110.71 304.486 111.097C304.926 112.31 305.348 113.543 305.751 114.795C306.168 116.093 306.571 117.376 306.96 118.646C307.081 119.041 307.499 119.256 307.893 119.127C308.541 121.26 309.15 123.356 309.721 125.416C309.324 125.534 309.09 125.952 309.199 126.35C309.926 129.006 310.59 131.6 311.189 134.137C311.284 134.539 311.686 134.781 312.088 134.678C312.595 136.86 313.056 138.999 313.471 141.098C313.066 141.186 312.802 141.585 312.881 141.991C313.403 144.694 313.848 147.33 314.218 149.901C314.276 150.311 314.654 150.588 315.062 150.522C315.37 152.747 315.622 154.925 315.817 157.059C315.407 157.104 315.104 157.474 315.139 157.887C315.376 160.636 315.518 163.311 315.569 165.917C315.577 166.332 315.916 166.655 316.328 166.64C316.357 168.886 316.317 171.082 316.211 173.233C315.8 173.219 315.449 173.542 315.425 173.957C315.269 176.698 315.003 179.365 314.631 181.964C314.572 182.375 314.854 182.75 315.261 182.803C314.925 185.016 314.511 187.182 314.022 189.306C313.622 189.218 313.22 189.474 313.123 189.879C312.491 192.52 311.739 195.097 310.873 197.619C310.738 198.013 310.942 198.437 311.33 198.567C310.592 200.656 309.776 202.708 308.882 204.73C308.508 204.566 308.066 204.741 307.894 205.121C306.79 207.564 305.572 209.965 304.244 212.332C304.04 212.696 304.163 213.152 304.52 213.352C303.432 215.257 302.274 217.141 301.047 219.01C300.706 218.785 300.243 218.883 300.011 219.231C298.536 221.446 296.963 223.641 295.295 225.826C295.041 226.158 295.098 226.629 295.422 226.878Z"
        stroke="#4E4E4E" stroke-width="1.5" stroke-linecap="round" stroke-linejoin="round"
        stroke-dasharray="8 8" />
    <path
        d="M50.9179 224.633C49.538 222.912 48.1284 221.179 46.6841 219.439C46.6842 219.438 46.6844 219.438 46.6846 219.438C46.9926 219.154 47.0297 218.669 46.7675 218.355C46.3092 217.805 45.8474 217.254 45.382 216.702C46.147 216.767 46.8963 216.807 47.6302 216.822C48.0342 216.83 48.3774 216.493 48.3967 216.07C48.3968 216.067 48.3969 216.064 48.397 216.061C50.7274 216.055 52.8864 215.788 54.8878 215.282C54.8886 215.286 54.8895 215.29 54.8904 215.294C54.9867 215.702 55.3833 215.942 55.7762 215.829C58.5918 215.023 61.1014 213.745 63.3384 212.057C63.671 211.806 63.7539 211.326 63.5236 210.984C63.5214 210.981 63.519 210.978 63.5167 210.974C65.2463 209.579 66.8019 207.923 68.2038 206.039C68.2062 206.041 68.2085 206.042 68.2109 206.044C68.5334 206.29 68.9928 206.21 69.2369 205.865C70.825 203.622 72.2072 201.092 73.4167 198.329C73.5871 197.94 73.4278 197.489 73.0609 197.322C73.0592 197.321 73.0576 197.32 73.0559 197.319C73.918 195.272 74.691 193.094 75.387 190.804C75.3881 190.805 75.3892 190.805 75.3904 190.805C75.7767 190.919 76.1871 190.681 76.307 190.273C77.081 187.639 77.7565 184.868 78.3513 181.989C78.4373 181.573 78.1867 181.172 77.7914 181.093C77.7906 181.093 77.7899 181.093 77.7892 181.093C78.234 178.874 78.6328 176.59 78.9933 174.254C78.9939 174.254 78.9944 174.254 78.9949 174.254C79.3945 174.308 79.7695 174.011 79.8326 173.591C80.2457 170.839 80.6075 168.019 80.9306 165.152C80.9781 164.73 80.691 164.357 80.2893 164.319C80.289 164.319 80.2887 164.319 80.2883 164.319C80.5384 162.045 80.7651 159.742 80.9748 157.418C80.975 157.418 80.9752 157.418 80.9754 157.418C81.3782 157.446 81.735 157.125 81.7724 156.702C82.0197 153.907 82.2433 151.086 82.454 148.257C82.4855 147.833 82.1842 147.473 81.7809 147.452C81.7808 147.452 81.7807 147.452 81.7806 147.452C81.9499 145.153 82.1114 142.849 82.2709 140.548C82.6743 140.566 83.0251 140.239 83.0544 139.815L83.1292 138.734C83.2995 136.269 83.4693 133.813 83.6457 131.375C83.6763 130.952 83.3743 130.593 82.9711 130.573C83.1411 128.248 83.3177 125.941 83.5074 123.661C83.9101 123.687 84.2654 123.365 84.3012 122.942C84.5437 120.082 84.8076 117.27 85.1055 114.525C85.1513 114.104 84.8632 113.732 84.4618 113.696C84.7233 111.348 85.0108 109.051 85.332 106.815C85.7311 106.868 86.1046 106.57 86.1668 106.151C86.5931 103.273 87.0774 100.507 87.6364 97.8796C87.7247 97.4647 87.4778 97.0628 87.0847 96.9806C87.6053 94.619 88.189 92.3697 88.8485 90.2528C89.2298 90.3758 89.6438 90.1504 89.7746 89.7475C90.6946 86.9141 91.7541 84.348 92.9818 82.0947C93.1832 81.725 93.0673 81.2634 92.7232 81.059C93.9375 78.9486 95.3128 77.1142 96.8764 75.5993C97.1359 75.9072 97.5902 75.9351 97.8981 75.6594C99.8603 73.9023 102.115 72.6537 104.725 71.9937C105.115 71.8948 105.366 71.489 105.291 71.0824C107.288 70.6663 109.474 70.5697 111.872 70.8256C111.815 71.2422 112.088 71.6208 112.484 71.6739C114.783 71.9817 117.29 72.6151 120.025 73.6101C120.402 73.7472 120.823 73.5365 120.967 73.139C122.861 73.8592 124.854 74.7448 126.953 75.805C126.768 76.1854 126.907 76.6426 127.265 76.8275C128.446 77.4384 129.662 78.1049 130.913 78.8286C132.105 79.5177 133.269 80.1796 134.405 80.8149C134.758 81.0121 135.204 80.8678 135.402 80.4928C135.403 80.4924 135.403 80.4921 135.403 80.4918C137.327 81.5599 139.171 82.5504 140.939 83.4668C140.939 83.4672 140.938 83.4676 140.938 83.4681C140.752 83.8495 140.892 84.3083 141.251 84.4927C143.73 85.7656 146.059 86.8922 148.247 87.8826C148.615 88.0489 149.05 87.8677 149.219 87.478C149.219 87.4774 149.219 87.4767 149.22 87.4761C151.259 88.385 153.172 89.1719 154.967 89.8455C154.966 89.8465 154.966 89.8475 154.966 89.8485C154.823 90.249 155.014 90.6858 155.392 90.8241C158.174 91.8404 160.674 92.5835 162.925 93.0843C163.318 93.1719 163.714 92.9067 163.808 92.4922C163.809 92.4901 163.809 92.4881 163.81 92.486C166.164 92.9667 168.218 93.1659 170.014 93.127C170.014 93.1318 170.014 93.1366 170.014 93.1414C170.026 93.5643 170.363 93.8874 170.768 93.863C174.089 93.6623 176.577 92.627 178.437 90.9893C178.751 90.7129 178.799 90.2285 178.544 89.9074C178.538 89.8998 178.532 89.8923 178.525 89.885C180.032 88.3405 181.01 86.3513 181.683 84.1552C181.687 84.1564 181.691 84.1574 181.695 84.1585C182.084 84.2636 182.489 84.0161 182.601 83.6057C183.316 80.9689 183.65 78.1041 183.944 75.4284C183.991 75.0063 183.703 74.6343 183.301 74.5976C183.301 74.5976 183.301 74.5976 183.301 74.5976C183.564 72.2031 183.826 69.9347 184.334 68.0548C184.711 68.1675 185.116 67.9435 185.245 67.5462C185.681 66.2117 186.25 65.2393 187.016 64.6343C187.763 64.0442 188.796 63.7261 190.319 63.904C190.71 63.9498 191.073 63.6608 191.141 63.2544C192.717 63.5599 194.637 64.2966 196.988 65.5559C196.795 65.9302 196.921 66.3904 197.272 66.5861C198.24 67.1255 199.282 67.7521 200.403 68.4726C200.984 69.5823 201.559 70.7115 202.125 71.8595C202.308 72.2309 202.748 72.3682 203.108 72.1666C204.057 74.1111 204.982 76.1073 205.885 78.151C205.517 78.3366 205.354 78.795 205.52 79.1756C206.581 81.6047 207.609 84.1004 208.602 86.6557C208.753 87.0437 209.179 87.2214 209.554 87.0531C210.337 89.0887 211.098 91.161 211.837 93.2665C211.457 93.4216 211.26 93.8663 211.397 94.2603C212.273 96.7839 213.117 99.3549 213.927 101.967C214.051 102.366 214.463 102.576 214.848 102.436C215.491 104.534 216.114 106.659 216.713 108.806C216.325 108.935 216.101 109.366 216.212 109.769C216.929 112.365 217.613 114.995 218.263 117.652C218.363 118.059 218.761 118.295 219.152 118.18C219.671 120.327 220.168 122.491 220.642 124.671C220.248 124.775 220 125.192 220.088 125.603C220.657 128.253 221.193 130.925 221.693 133.613C221.77 134.026 222.154 134.286 222.55 134.195C222.951 136.379 223.328 138.573 223.682 140.775C223.284 140.857 223.014 141.259 223.079 141.674C223.505 144.367 223.895 147.07 224.248 149.78C224.302 150.198 224.671 150.481 225.071 150.413C225.354 152.625 225.612 154.842 225.845 157.061C225.443 157.118 225.153 157.504 225.196 157.924C225.475 160.649 225.716 163.375 225.918 166.099C225.949 166.52 226.301 166.825 226.704 166.781C226.863 169.016 226.997 171.249 227.103 173.476C226.699 173.508 226.388 173.877 226.407 174.299C226.53 177.048 226.612 179.789 226.652 182.517C226.658 182.94 226.99 183.268 227.394 183.25C227.42 185.5 227.417 187.742 227.384 189.97C226.98 189.975 226.647 190.322 226.639 190.745C226.59 193.509 226.494 196.254 226.351 198.973C226.329 199.397 226.637 199.749 227.041 199.761C226.914 202.018 226.755 204.257 226.563 206.476C226.16 206.448 225.804 206.768 225.765 207.19C225.515 209.955 225.212 212.687 224.856 215.379C224.8 215.8 225.079 216.178 225.478 216.226C225.171 218.473 224.826 220.693 224.442 222.882C224.046 222.816 223.663 223.1 223.588 223.518C223.095 226.258 222.541 228.947 221.923 231.578C221.826 231.991 222.065 232.399 222.456 232.49C221.923 234.709 221.345 236.887 220.721 239.019C220.336 238.905 219.925 239.141 219.804 239.547C219.001 242.228 218.125 244.832 217.173 247.353C217.024 247.75 217.205 248.189 217.579 248.337C216.758 250.466 215.881 252.534 214.949 254.538C214.588 254.36 214.15 254.525 213.968 254.908C212.774 257.419 211.491 259.821 210.115 262.106C209.898 262.467 209.995 262.937 210.333 263.157C209.139 265.095 207.878 266.948 206.547 268.709C206.236 268.451 205.777 268.51 205.519 268.843C203.842 271.009 202.056 273.028 200.161 274.885C199.862 275.177 199.839 275.66 200.107 275.966C198.498 277.5 196.81 278.923 195.043 280.227C194.82 279.883 194.369 279.799 194.032 280.04C192.978 280.793 191.895 281.504 190.784 282.171C189.467 282.533 188.165 282.881 186.88 283.216C186.486 283.318 186.236 283.734 186.322 284.145C184.115 284.713 181.954 285.241 179.839 285.73C179.764 285.317 179.381 285.055 178.984 285.146C176.26 285.766 173.614 286.32 171.041 286.81C170.641 286.886 170.367 287.285 170.428 287.702C168.186 288.12 165.999 288.49 163.864 288.813C163.819 288.394 163.457 288.103 163.055 288.161C160.295 288.567 157.626 288.892 155.041 289.139C154.638 289.178 154.332 289.55 154.357 289.971C152.095 290.176 149.898 290.322 147.762 290.41C147.759 289.988 147.429 289.657 147.026 289.671C144.244 289.77 141.568 289.77 138.991 289.675C138.588 289.66 138.241 289.99 138.214 290.412C135.941 290.313 133.744 290.14 131.617 289.897C131.673 289.477 131.396 289.098 130.997 289.049C128.265 288.714 125.651 288.261 123.144 287.698C122.752 287.61 122.357 287.872 122.26 288.285C120.066 287.77 117.953 287.171 115.911 286.491C116.044 286.089 115.846 285.658 115.466 285.528C112.898 284.643 110.445 283.63 108.091 282.497C107.728 282.323 107.292 282.493 107.113 282.876C105.121 281.892 103.199 280.823 101.336 279.674C101.549 279.31 101.447 278.842 101.105 278.626C98.8405 277.199 96.6624 275.651 94.5521 273.995C94.2337 273.745 93.775 273.818 93.5262 274.157C91.8032 272.781 90.1253 271.333 88.4822 269.819C88.7544 269.499 88.7347 269.016 88.4377 268.739C86.4888 266.918 84.5864 265.004 82.7127 263.005C82.4338 262.707 81.9711 262.709 81.6785 263.009C80.1781 261.392 78.6961 259.723 77.2234 258.007C77.5277 257.72 77.5596 257.235 77.2944 256.924C75.5574 254.885 73.8311 252.779 72.1 250.616C71.8439 250.296 71.3829 250.262 71.0699 250.539C69.6941 248.812 68.3154 247.051 66.926 245.26C67.2428 244.987 67.2961 244.504 67.045 244.179C65.5694 242.273 64.0809 240.332 62.5694 238.362L62.0364 237.667C61.7865 237.341 61.3261 237.297 61.008 237.568C59.6642 235.817 58.3018 234.045 56.9146 232.255C56.9146 232.255 56.9147 232.255 56.9148 232.255C57.2315 231.982 57.2843 231.498 57.0326 231.174C55.3781 229.043 53.687 226.886 51.949 224.711C51.693 224.391 51.2316 224.356 50.9184 224.633C50.9182 224.633 50.9181 224.633 50.9179 224.633Z"
        stroke="#4E4E4E" stroke-width="1.5" stroke-linecap="round" stroke-linejoin="round"
        stroke-dasharray="8 8" />
    <path
        d="M333.386 164.624C322.531 218.257 293.108 262.734 178.028 290.536C86.8936 301.171 22.793 136.923 98.3314 127.02C173.87 117.117 187.646 47.0508 262.39 47.0508C337.134 47.0508 344.24 110.99 333.386 164.624Z"
        fill="#B5C4D7" />
    <path d="M127.734 223.457H123.354V242.932H127.734V223.457Z" fill="#AFB1B2" />
    <path d="M286.879 223.457H282.499V242.932H286.879V223.457Z" fill="#AFB1B2" />
    <path
        d="M178.036 102.733C178.036 102.733 182.37 115.242 187.228 114.408C187.228 114.408 187.951 106.461 178.036 102.733Z"
        fill="#0C3877" />
    <path
        d="M222.54 114.572L220.438 111.866C220.353 112.898 219.668 114.934 219.237 116.133C218.962 116.884 218.79 117.674 218.728 118.477C218.257 125.46 222.418 132.419 222.418 132.419C205.426 137.564 189.217 132.085 189.217 132.085C190.547 127.584 191.435 122.949 191.869 118.253L188.526 111.126L187.228 114.391C187.043 105.684 178.036 102.717 178.036 102.717C178.036 102.717 192.177 86.1723 216.192 92.7833C218.301 93.37 220.292 94.3632 222.066 95.7138C224.803 97.7868 229.152 101.213 232.074 104.2C232.074 104.217 232.888 112.858 222.54 114.572Z"
        fill="#0C3877" />
    <path opacity="0.2"
        d="M194.132 92.8369C194.132 92.8369 196.941 97.4921 203.085 98.1619C209.229 98.8317 212.764 97.2744 215.991 92.8369C215.991 92.8369 207.56 88.9553 194.132 92.8369Z"
        fill="white" />
    <path
        d="M199.763 46.5295C199.763 46.5295 204.895 42.9728 213.355 41.4624C213.702 41.4006 214.058 41.4266 214.394 41.5383C214.731 41.65 215.037 41.8442 215.29 42.1054C218.383 45.3138 228.369 58.0971 221.481 83.8313C221.481 83.8313 225.846 82.9438 225.94 85.3183C225.94 85.3183 226.311 86.7014 224.268 87.1971C224.268 87.1971 226.588 88.386 223.712 89.5716C223.712 89.5716 217.459 91.5107 209.134 89.8295C206.068 89.204 202.94 88.988 199.823 89.1864C197.697 89.2936 195.581 89.5543 193.488 89.9668C193.488 89.9668 183.598 92.8369 183.322 88.0879C183.322 88.0879 183.322 85.7135 188.428 85.8106C188.428 85.8106 182.175 67.2635 189.189 47.8256C189.36 47.3597 189.689 46.9787 190.11 46.7572C192.052 45.7458 197.692 43.1905 199.763 46.5295Z"
        fill="#2F2E41" />
    <path d="M201.526 81.0616L200.69 92.2442H210.162L208.396 81.0616H201.526Z" fill="#F9B499" />
    <path
        d="M196.511 93.6307L202.548 91.6514H207.934L213.967 93.2321C213.967 93.2321 207.469 99.2705 196.511 93.6307Z"
        fill="#F9B499" />
    <path
        d="M222.54 114.572C226.503 105.004 232.074 104.214 232.074 104.214L229.812 102.054C222.851 104.214 221.484 113.213 221.484 113.213L222.54 114.572Z"
        fill="#0C3877" />
    <path
        d="M180.409 100.429C180.409 100.429 188.466 104.204 188.52 111.146L187.222 114.412C187.222 114.412 187.589 106.551 178.03 102.737C178.036 102.733 178.58 101.913 180.409 100.429Z"
        fill="#0C3877" />
    <path opacity="0.2"
        d="M183.727 106.27C183.727 106.27 190.848 104.415 192.086 102.831C192.086 102.831 192.806 106.869 189.538 113.296L188.526 111.143L187.228 114.408C187.182 112.872 186.849 111.36 186.248 109.963C185.646 108.565 184.79 107.31 183.727 106.27V106.27Z"
        fill="black" />
    <path opacity="0.2"
        d="M220.947 94.9435C220.947 94.9435 225.368 100.255 224.564 110.594C224.564 110.594 227.376 105.54 232.084 104.23C232.074 104.217 225.346 97.7098 220.947 94.9435Z"
        fill="black" />
    <path
        d="M163.483 122.235C163.483 122.235 176.55 105.999 179.985 103.624C179.985 103.624 183.184 104.944 185.808 109.033C185.808 109.033 177.386 116.585 170.978 124.104L163.483 122.235Z"
        fill="#F9B499" />
    <path
        d="M169.558 159.728C169.558 159.728 159.04 154.691 153.629 138.016C153.629 138.016 156.142 129.087 162.267 125.289C162.267 125.289 183.479 130.718 190.619 132.279C190.619 132.279 206.111 137.302 222.418 132.45C222.418 132.45 247.636 125.591 250.559 125.289C250.559 125.289 260.413 139.821 259.332 142.524C259.332 142.524 253.528 152.276 239.22 157.313C239.22 157.313 242.476 141.75 230.311 135.122C230.311 135.122 239.968 131.954 244.239 129.975C244.239 129.975 219.118 148.281 190.666 139.476C190.666 139.476 178.039 137.292 168.012 129.382C168.012 129.382 179.12 134.405 183.284 138.22C183.281 138.19 170.567 143.267 169.558 159.728Z"
        fill="#24333E" />
    <path
        d="M175.868 154.949C175.868 154.949 172.725 159.098 169.558 159.728C169.558 159.728 170.02 143.203 183.281 138.19L180.293 135.933C180.293 135.933 193.541 141.683 205.703 141.653C205.703 141.653 218.694 141.907 230.12 137.081L230.308 135.092C230.308 135.092 235.525 137.222 238.24 144.349C239.677 148.482 240.015 152.958 239.217 157.283C239.217 157.283 234.906 153.006 234.051 150.648L236.804 149.577C236.804 149.577 236.534 142.055 230.874 137.262L201.712 153.991L180.915 140.829C180.915 140.829 175.481 146.124 174.184 153.991L175.868 154.949Z"
        fill="#24333E" />
    <path opacity="0.2"
        d="M175.868 154.949C175.868 154.949 172.725 159.098 169.558 159.728C169.558 159.728 170.02 143.203 183.281 138.19L180.293 135.933C180.293 135.933 193.541 141.683 205.703 141.653C205.703 141.653 218.694 141.907 230.12 137.081L230.308 135.092C230.308 135.092 235.525 137.222 238.24 144.349C239.677 148.482 240.015 152.958 239.217 157.283C239.217 157.283 234.906 153.006 234.051 150.648L236.804 149.577C236.804 149.577 236.534 142.055 230.874 137.262L201.712 153.991L180.915 140.829C180.915 140.829 175.481 146.124 174.184 153.991L175.868 154.949Z"
        fill="black" />
    <path
        d="M216.579 156.724C216.579 156.724 228.853 153.063 234.051 150.648L236.804 149.577C236.804 149.577 236.421 141.482 230.874 137.262L201.423 154.064L206.52 157.357C206.52 157.357 207.098 157.487 209.093 156.017C209.093 156.017 210.941 153.8 214.049 155.726L216.579 156.724Z"
        fill="#F9B499" />
    <path
        d="M205.524 154.583C204.597 154.604 203.28 154.419 202.717 153.328L201.291 154.061L206.52 157.849C206.52 157.849 207.346 157.849 209.093 156.348C209.093 156.348 210.91 153.9 214.049 156.014L216.189 156.958L217.559 156.415C217.559 156.415 211.884 152.175 206.994 154.245C206.527 154.452 206.029 154.566 205.524 154.583Z"
        fill="#F7A78D" />
    <path
        d="M184.089 158.569L178.646 162.464C178.595 162.5 178.554 162.549 178.527 162.607C178.5 162.665 178.487 162.73 178.49 162.795C178.494 162.86 178.513 162.922 178.545 162.977C178.578 163.032 178.623 163.076 178.677 163.107L182.194 165.116C182.266 165.16 182.351 165.173 182.433 165.153L195.348 162.216C195.348 162.216 188.07 160.223 184.089 158.569Z"
        fill="#F9B499" />
    <path
        d="M191.128 163.167C189.443 162.608 187.671 161.961 185.864 161.215C184.683 160.729 183.548 160.23 182.464 159.728L184.089 158.569C184.089 158.569 191.879 161.382 195.348 162.206L191.128 163.167Z"
        fill="#F7A78D" />
    <path
        d="M166.268 239.593C166.268 239.593 166.582 200.784 169.275 192.177C169.275 192.177 217.883 187.116 239.098 192.177C239.098 192.177 242.105 203.821 242.897 239.593C242.897 239.593 244.468 231.89 245.537 229.485C245.607 229.326 245.715 229.189 245.849 229.087C245.983 228.985 246.14 228.922 246.304 228.902C248.302 228.658 255.835 227.831 256.96 229.03C256.96 229.03 257.705 231.933 257.588 232.921C257.588 232.921 253.076 234.509 250.537 234.492C250.321 234.491 250.108 234.551 249.921 234.665C249.733 234.779 249.577 234.943 249.468 235.142L245.383 242.62H163.549L159.684 235.393C159.559 235.16 159.386 234.96 159.178 234.809C158.97 234.658 158.733 234.558 158.484 234.519C156.856 234.271 153.167 233.645 151.529 232.888C151.529 232.888 151.46 229.328 152.739 228.645C152.739 228.645 160.218 228.186 162.726 228.665C162.939 228.708 163.137 228.809 163.302 228.958C163.467 229.107 163.594 229.299 163.669 229.515C164.742 232.81 165.61 236.176 166.268 239.593V239.593Z"
        fill="#868D91" />
    <path
        d="M184.051 188.369C184.051 188.369 184.651 176.449 187.451 174.541C187.61 174.438 187.79 174.378 187.976 174.366C190.411 174.142 211.092 172.39 220.846 174.39C221.261 174.441 221.649 174.635 221.951 174.942C222.253 175.25 222.452 175.655 222.518 176.094C222.518 176.094 224.586 184.655 225.079 187.518L184.051 188.369Z"
        fill="#868D90" />
    <path d="M253.591 221.2L252.259 207.311L264.043 206.969L262.871 221.2H253.591Z" fill="#24333E" />
    <path opacity="0.2"
        d="M261.432 210.208C261.432 210.208 254.204 210.034 252.488 209.696L252.259 207.311L264.043 206.976L262.871 221.206H261.271L261.432 210.208Z"
        fill="black" />
    <path d="M249.839 186.028L253.616 205.03H255.411L251.819 186.028H249.839Z" fill="#CCCCCC" />
    <path d="M249.251 186.282L249.839 186.028L253.616 205.03H253.025L249.251 186.282Z"
        fill="#CCCCCC" />
    <path opacity="0.2" d="M249.251 186.282L249.839 186.028L253.616 205.03H253.025L249.251 186.282Z"
        fill="black" />
    <path opacity="0.2"
        d="M255.844 204.994L254.543 193.771L256.432 193.603L257.591 204.94L255.844 204.994Z"
        fill="black" />
    <path opacity="0.2"
        d="M255.935 203.614H257.453L257.591 204.94L255.844 204.994L255.684 203.614H255.935Z"
        fill="black" />
    <path opacity="0.2"
        d="M254.663 194.806L256.536 194.638L256.432 193.603L254.543 193.771L254.663 194.806Z"
        fill="black" />
    <path opacity="0.2"
        d="M254.543 192.053L254.722 193.754L256.212 193.623L255.995 191.922C255.756 191.837 255.502 191.814 255.253 191.855C255.009 191.886 254.77 191.953 254.543 192.053V192.053Z"
        fill="black" />
    <path opacity="0.2"
        d="M259.138 196.196L259.326 204.873L260.671 204.813L260.904 196.196H259.138Z" fill="black" />
    <path d="M259.37 194.528L259.138 196.196H260.904L260.671 194.528H259.37Z" fill="#CCCCCC" />
    <path opacity="0.2" d="M259.37 194.528L259.138 196.196H260.904L260.671 194.528H259.37Z"
        fill="black" />
    <path opacity="0.2"
        d="M259.301 203.614H260.703L260.671 204.813L259.326 204.873L259.301 203.614Z" fill="black" />
    <path opacity="0.2"
        d="M262.249 195.188L261.62 204.766L263.323 204.679L264.53 195.057C264.53 195.057 262.931 194.461 262.249 195.188Z"
        fill="black" />
    <path opacity="0.2" d="M261.705 203.614H263.465L263.333 204.679L261.63 204.766L261.705 203.614Z"
        fill="black" />
    <path d="M107.842 221.2L109.301 225.714H300.2L301.297 221.2H107.842Z" fill="#CCCCCC" />
    <path opacity="0.2" d="M107.842 221.2L109.301 225.714H300.2L301.297 221.2H107.842Z"
        fill="#39434B" />
    <path d="M160.702 221.2H117.744L117.151 219.297H161.315L160.702 221.2Z" fill="#2F2E41" />
    <path
        d="M118.426 217.187L118.86 219.297H160.209V217.187C160.209 217.187 147.208 210.081 139.905 217.784C139.905 217.784 135.506 210.988 129.94 213.363L118.426 217.187Z"
        fill="#CCCCCC" />
    <path
        d="M139.805 217.82C139.13 215.679 137.817 213.831 136.065 212.559C135.439 212.122 134.732 211.836 133.991 211.72C133.251 211.605 132.496 211.662 131.779 211.889L119.696 215.65L119.633 215.429L131.719 211.675C132.466 211.436 133.252 211.374 134.024 211.493C134.795 211.612 135.533 211.91 136.185 212.365C137.974 213.657 139.316 215.54 140.006 217.723L139.805 217.82Z"
        fill="#CCCCCC" />
    <path
        d="M140.433 216.719L140.245 216.605C142.215 212.954 145.942 211.333 151.02 211.916C153.471 212.235 155.869 212.911 158.147 213.925L158.059 214.136C157.931 214.066 145.097 208.088 140.433 216.719Z"
        fill="#CCCCCC" />
    <path
        d="M205.178 83.8313C213.092 83.8313 219.508 75.8064 219.508 65.9071C219.508 56.0079 213.092 47.983 205.178 47.983C197.264 47.983 190.848 56.0079 190.848 65.9071C190.848 75.8064 197.264 83.8313 205.178 83.8313Z"
        fill="#F9B499" />
    <path
        d="M219.168 74.5879C220.98 74.5879 222.449 73.0225 222.449 71.0914C222.449 69.1604 220.98 67.595 219.168 67.595C217.356 67.595 215.887 69.1604 215.887 71.0914C215.887 73.0225 217.356 74.5879 219.168 74.5879Z"
        fill="#F9B499" />
    <path
        d="M190.213 74.5879C192.025 74.5879 193.494 73.0225 193.494 71.0914C193.494 69.1604 192.025 67.595 190.213 67.595C188.401 67.595 186.933 69.1604 186.933 71.0914C186.933 73.0225 188.401 74.5879 190.213 74.5879Z"
        fill="#F9B499" />
    <path
        d="M199.481 53.0166C199.481 53.0166 207.767 68.8744 219.995 66.8281C219.995 66.8281 220.765 52.3267 208.251 48.0734C208.251 48.0734 197.124 44.6775 191.737 58.3985C191.737 58.3985 190.443 62.2198 190.411 64.6814C190.411 64.6713 195.257 64.0652 199.481 53.0166Z"
        fill="#2F2E41" />
    <path
        d="M222.54 114.572C222.54 114.572 225.547 105.694 232.074 104.214C232.074 104.217 233.001 112.784 222.54 114.572Z"
        fill="#0C3877" />
    <path
        d="M224.812 110.188C224.812 110.188 233.558 116.156 240.43 124.666L247.425 122.359C247.425 122.359 235.717 108.681 230.305 104.86C230.305 104.86 226.459 107.204 224.812 110.188Z"
        fill="#F9B499" />
    <path
        d="M164.577 120.885C164.577 120.885 169.734 119.07 172.81 122.014L170.981 124.107C170.981 124.107 165.35 120.711 163.486 122.017L164.577 120.885Z"
        fill="#F7A78D" />
    <path
        d="M157.516 127.299C157.098 126.629 156.96 125.708 158.072 124.683C158.072 124.683 169.121 117.493 170.978 124.124C170.978 124.124 174.482 123.628 174.818 126.003C174.818 126.003 175.714 128.776 170.978 127.389C170.978 127.389 167.575 129.342 159.414 128.471C159.036 128.435 158.671 128.312 158.343 128.11C158.015 127.907 157.732 127.63 157.516 127.299V127.299Z"
        fill="#F9B499" />
    <path
        d="M239.601 123.662C239.601 123.662 241.687 120.051 246.175 120.935L247.118 122.034L240.43 124.666L239.601 123.662Z"
        fill="#F7A78D" />
    <path
        d="M242.162 127.701C242.162 127.701 245.876 129.419 252.438 128.297C252.783 128.333 253.13 128.247 253.425 128.051C253.719 127.856 253.944 127.562 254.066 127.215C254.223 126.823 254.25 126.387 254.143 125.977C254.036 125.566 253.802 125.207 253.478 124.958C251.809 123.638 247.913 121.143 243.155 122.027C243.155 122.027 240.987 122.489 240.43 124.666C240.43 124.666 238.139 123.876 238.139 126.448C238.139 126.448 238.017 128.759 242.162 127.701Z"
        fill="#F9B499" />
    <path
        d="M207.085 157.269L180.915 140.829C180.915 140.829 175.488 145.799 174.184 153.991C174.184 153.991 189.176 162.698 208.675 164.577C208.675 164.577 224.74 167.153 227.43 166.459C227.43 166.459 229.919 163.937 230.538 162.521C230.551 162.487 230.558 162.45 230.558 162.413C230.558 162.375 230.551 162.339 230.537 162.305C230.523 162.27 230.503 162.24 230.478 162.214C230.453 162.188 230.423 162.169 230.39 162.156L213.782 155.622C213.782 155.622 211.321 153.991 209.093 156.02C209.093 156.02 207.513 157.547 207.085 157.269Z"
        fill="#F9B499" />
    <path
        d="M251.46 204.997L251.724 207.783C251.724 207.783 260.79 208.008 264.737 207.385L265.005 204.598C265.005 204.598 254.713 205.208 251.46 204.997Z"
        fill="#24333E" />
    <path opacity="0.16"
        d="M177.662 221.2L131.153 128.675C131.153 128.675 227.364 146.82 271.808 130.792L232.134 221.216L177.662 221.2Z"
        fill="#CCCCCC" />
    <path
        d="M174.184 186.778L177.662 221.2H232.128L234.661 186.778C234.661 186.778 204.898 185.09 174.184 186.778Z"
        fill="#24333E" />
    <path opacity="0.2"
        d="M204.421 207.502C206.435 207.502 208.069 205.761 208.069 203.614C208.069 201.466 206.435 199.725 204.421 199.725C202.406 199.725 200.772 201.466 200.772 203.614C200.772 205.761 202.406 207.502 204.421 207.502Z"
        fill="black" />
    <path
        d="M283.205 194.382C284.756 197.172 284.429 200.465 284.429 200.465C284.429 200.465 281.588 199.235 280.037 196.445C278.487 193.655 278.814 190.362 278.814 190.362C278.814 190.362 281.654 191.592 283.205 194.382Z"
        fill="#3F3E43" />
    <path
        d="M282.417 175.452C282.913 178.59 285.205 181.001 285.205 181.001C285.205 181.001 286.693 178.325 286.197 175.187C285.7 172.049 283.408 169.638 283.408 169.638C283.408 169.638 281.921 172.314 282.417 175.452Z"
        fill="#3F3E43" />
    <path
        d="M283.537 175.021C285.329 177.63 285.332 180.991 285.332 180.991C285.332 180.991 282.428 180.123 280.636 177.514C278.844 174.906 278.841 171.545 278.841 171.545C278.841 171.545 281.745 172.413 283.537 175.021Z"
        fill="#3F3D56" />
    <path
        d="M289.057 185.459C286.739 186.691 285.824 189.709 285.824 189.709C285.824 189.709 288.667 190.729 290.985 189.497C293.302 188.264 294.217 185.247 294.217 185.247C294.217 185.247 291.374 184.227 289.057 185.459Z"
        fill="#3F3D56" />
    <path
        d="M283.432 207.477C280.744 207.332 278.713 209.419 278.713 209.419C278.713 209.419 281.04 211.741 283.728 211.886C286.416 212.031 288.447 209.944 288.447 209.944C288.447 209.944 286.12 207.622 283.432 207.477Z"
        fill="#3F3D56" />
    <path
        d="M260.72 217.037L260.952 217.167C261.377 215.852 262.148 214.762 263.168 214.036C264.678 213.005 266.608 212.971 268.474 212.939C268.82 212.932 269.165 212.926 269.507 212.914C270.91 212.883 272.288 212.68 273.619 212.307C278.548 210.855 282.622 206.137 284.518 199.685C286.021 194.567 286.294 188.292 285.352 180.504L285.107 180.509C286.044 188.253 285.774 194.486 284.282 199.564C282.41 205.938 278.39 210.598 273.53 212.03C272.216 212.398 270.855 212.598 269.469 212.629C269.129 212.641 268.785 212.647 268.439 212.653C266.544 212.686 264.583 212.72 263.024 213.786C261.963 214.539 261.162 215.671 260.72 217.037V217.037Z"
        fill="#3F3D56" />
    <path
        d="M277.785 168.613C278.55 169.935 280.026 170.417 281.082 169.689C282.137 168.962 282.373 167.3 281.608 165.978C280.842 164.656 279.366 164.174 278.311 164.902C277.255 165.63 277.02 167.291 277.785 168.613Z"
        fill="#3F3D56" />
    <path
        d="M155.448 274.951C152.385 275.01 149.856 273.121 149.856 273.121C149.856 273.121 152.293 271.138 155.356 271.08C158.418 271.022 160.947 272.91 160.947 272.91C160.947 272.91 158.511 274.893 155.448 274.951Z"
        fill="#3F3E43" />
    <path
        d="M171.279 283.696C168.458 282.628 165.326 283.545 165.326 283.545C165.326 283.545 166.768 286.193 169.589 287.261C172.409 288.329 175.541 287.412 175.541 287.412C175.541 287.412 174.1 284.763 171.279 283.696Z"
        fill="#3F3E43" />
    <path
        d="M171.054 284.872C168.018 285.238 165.268 283.615 165.268 283.615C165.268 283.615 167.44 281.4 170.476 281.035C173.512 280.669 176.262 282.292 176.262 282.292C176.262 282.292 174.09 284.507 171.054 284.872Z"
        fill="#3F3D56" />
    <path
        d="M159.858 284.828C160.019 282.095 157.987 279.777 157.987 279.777C157.987 279.777 155.692 281.89 155.53 284.624C155.368 287.357 157.401 289.675 157.401 289.675C157.401 289.675 159.696 287.562 159.858 284.828Z"
        fill="#3F3D56" />
    <path
        d="M144.701 268.681C146.188 266.288 145.499 263.408 145.499 263.408C145.499 263.408 142.399 264.409 140.912 266.802C139.425 269.195 140.114 272.075 140.114 272.075C140.114 272.075 143.214 271.074 144.701 268.681Z"
        fill="#3F3D56" />
    <path
        d="M148.124 243.149L147.898 243.299C148.77 244.332 149.279 245.574 149.36 246.866C149.444 248.758 148.488 250.547 147.563 252.277C147.392 252.599 147.221 252.919 147.057 253.239C146.367 254.543 145.832 255.909 145.463 257.313C144.151 262.552 145.98 268.604 150.354 273.501C153.824 277.387 158.878 280.707 165.806 283.652L165.927 283.425C159.039 280.497 154.017 277.199 150.574 273.344C146.252 268.506 144.444 262.533 145.737 257.368C146.103 255.981 146.631 254.632 147.313 253.343C147.476 253.025 147.646 252.706 147.817 252.386C148.757 250.628 149.728 248.81 149.641 246.856C149.558 245.513 149.03 244.223 148.124 243.149V243.149Z"
        fill="#3F3D56" />
    <path
        d="M179.145 282.811C177.67 282.868 176.525 283.982 176.588 285.3C176.651 286.618 177.899 287.641 179.374 287.585C180.849 287.528 181.994 286.414 181.931 285.096C181.867 283.778 180.62 282.755 179.145 282.811Z"
        fill="#3F3D56" />
</svg>
    