<svg width="15" height="15" viewBox="0 0 15 15" fill="none" xmlns="http://www.w3.org/2000/svg">
    <path
        d="M10.9902 5.4038C11.6372 5.4038 12.1617 4.88113 12.1617 4.23639C12.1617 3.59164 11.6372 3.06897 10.9902 3.06897C10.3432 3.06897 9.81873 3.59164 9.81873 4.23639C9.81873 4.88113 10.3432 5.4038 10.9902 5.4038Z"
        fill="white" />
    <path
        d="M7.47621 4.23645C6.78113 4.23645 6.10166 4.44185 5.52372 4.82669C4.94578 5.21152 4.49534 5.7585 4.22934 6.39845C3.96335 7.0384 3.89375 7.74259 4.02935 8.42196C4.16496 9.10133 4.49967 9.72537 4.99116 10.2152C5.48266 10.705 6.10886 11.0385 6.79059 11.1737C7.47231 11.3088 8.17894 11.2394 8.82111 10.9744C9.46328 10.7093 10.0121 10.2604 10.3983 9.68445C10.7845 9.10851 10.9906 8.43138 10.9906 7.7387C10.9906 6.80985 10.6203 5.91904 9.96126 5.26224C9.30218 4.60544 8.40828 4.23645 7.47621 4.23645ZM7.47621 10.0122C7.02501 10.0122 6.58393 9.87882 6.20877 9.62901C5.83361 9.3792 5.54121 9.02413 5.36854 8.60871C5.19587 8.19329 5.15069 7.73618 5.23872 7.29517C5.32674 6.85417 5.54402 6.44908 5.86307 6.13113C6.18212 5.81318 6.58861 5.59666 7.03115 5.50893C7.47368 5.42121 7.93238 5.46623 8.34924 5.63831C8.76609 5.81038 9.12239 6.10177 9.37306 6.47564C9.62374 6.84951 9.75754 7.28906 9.75754 7.7387C9.75754 8.34166 9.51718 8.91992 9.08935 9.34627C8.66152 9.77263 8.08126 10.0122 7.47621 10.0122Z"
        fill="white" />
    <path
        d="M7.47612 1.9962C9.3528 1.9962 9.57538 2.00321 10.3163 2.03706C10.762 2.04233 11.2034 2.12388 11.6213 2.27813C11.9245 2.39469 12.1999 2.57322 12.4297 2.80223C12.6595 3.03124 12.8387 3.30566 12.9556 3.60782C13.1104 4.02431 13.1922 4.46421 13.1975 4.90832C13.2315 5.64671 13.2385 5.86852 13.2385 7.73931C13.2385 9.6101 13.2315 9.83074 13.1975 10.5691C13.1922 11.0132 13.1104 11.4531 12.9556 11.8696C12.8387 12.1718 12.6595 12.4462 12.4297 12.6752C12.1999 12.9042 11.9245 13.0828 11.6213 13.1993C11.2034 13.3536 10.762 13.4351 10.3163 13.4404C9.57538 13.4742 9.3528 13.4813 7.47612 13.4813C5.59943 13.4813 5.37686 13.4742 4.63591 13.4404C4.19026 13.4351 3.74883 13.3536 3.3309 13.1993C3.02769 13.0828 2.75232 12.9042 2.52252 12.6752C2.29271 12.4462 2.11357 12.1718 1.9966 11.8696C1.84181 11.4531 1.75998 11.0132 1.75469 10.5691C1.72072 9.83074 1.71369 9.60893 1.71369 7.73873C1.71369 5.86852 1.72072 5.64671 1.75469 4.90832C1.75998 4.46421 1.84181 4.02431 1.9966 3.60782C2.11357 3.30566 2.29271 3.03124 2.52252 2.80223C2.75232 2.57322 3.02769 2.39469 3.3309 2.27813C3.74883 2.12388 4.19026 2.04233 4.63591 2.03706C5.37686 2.00321 5.59943 1.9962 7.47612 1.9962M7.47612 0.734222C5.56722 0.734222 5.32765 0.742394 4.57792 0.776249C3.99498 0.78798 3.41826 0.89811 2.87227 1.10196C2.40528 1.28191 1.98117 1.55712 1.62713 1.90994C1.27309 2.26276 0.996932 2.6854 0.816353 3.15078C0.611732 3.69507 0.501219 4.27 0.489515 4.85112C0.455542 5.59827 0.447342 5.83584 0.447342 7.73873C0.447342 9.64162 0.455542 9.87977 0.489515 10.6269C0.501285 11.2078 0.611797 11.7826 0.816353 12.3267C0.996932 12.7921 1.27309 13.2147 1.62713 13.5675C1.98117 13.9203 2.40528 14.1955 2.87227 14.3755C3.41845 14.5794 3.99537 14.6895 4.5785 14.7012C5.32824 14.7351 5.56722 14.7432 7.47612 14.7432C9.38501 14.7432 9.62458 14.7351 10.3743 14.7012C10.9574 14.6895 11.5344 14.5794 12.0805 14.3755C12.5475 14.1955 12.9716 13.9203 13.3257 13.5675C13.6797 13.2147 13.9559 12.7921 14.1365 12.3267C14.3409 11.7824 14.4512 11.2074 14.4627 10.6263C14.4967 9.87919 14.5049 9.64162 14.5049 7.73873C14.5049 5.83584 14.4967 5.59768 14.4627 4.85054C14.4509 4.26961 14.3404 3.69488 14.1359 3.15078C13.9553 2.6854 13.6791 2.26276 13.3251 1.90994C12.9711 1.55712 12.547 1.28191 12.08 1.10196C11.5337 0.898244 10.9568 0.788311 10.3737 0.776833C9.62399 0.741811 9.3856 0.734222 7.47612 0.734222Z"
        fill="white" />
</svg>
    