<svg width="15" height="15" viewBox="0 0 15 15" fill="none" xmlns="http://www.w3.org/2000/svg">
    <path
        d="M13.2794 0.734161H1.48156C0.857756 0.734161 0.351685 1.23849 0.351685 1.86014V13.6172C0.351685 14.2388 0.857756 14.7432 1.48156 14.7432H13.2794C13.9032 14.7432 14.4092 14.2388 14.4092 13.6172V1.86014C14.4092 1.23849 13.9032 0.734161 13.2794 0.734161V0.734161ZM13.2794 13.6224C5.41064 13.6207 1.47629 13.6189 1.47629 13.6172C1.47805 5.77565 1.4798 1.85488 1.48156 1.85488C9.35027 1.85663 13.2846 1.85838 13.2846 1.86014C13.2829 9.70168 13.2811 13.6224 13.2794 13.6224ZM2.43572 5.98579H4.5215V12.6716H2.43572V5.98579ZM3.47949 5.0717C4.14547 5.0717 4.68844 4.53235 4.68844 3.86693C4.68844 3.70871 4.65717 3.55205 4.59641 3.40588C4.53566 3.25971 4.44661 3.1269 4.33434 3.01502C4.22208 2.90315 4.08881 2.8144 3.94213 2.75386C3.79546 2.69331 3.63825 2.66215 3.47949 2.66215C3.32073 2.66215 3.16352 2.69331 3.01684 2.75386C2.87017 2.8144 2.73689 2.90315 2.62463 3.01502C2.51237 3.1269 2.42332 3.25971 2.36257 3.40588C2.30181 3.55205 2.27054 3.70871 2.27054 3.86693C2.26878 4.53235 2.81 5.0717 3.47949 5.0717ZM7.91289 9.36371C7.91289 8.49165 8.07982 7.64761 9.16401 7.64761C10.2324 7.64761 10.2482 8.644 10.2482 9.41975V12.6716H12.3322V9.00473C12.3322 7.20457 11.9421 5.81943 9.83174 5.81943C8.81784 5.81943 8.13781 6.37454 7.85841 6.89988H7.8303V5.98579H5.82886V12.6716H7.91289V9.36371Z"
        fill="white" />
</svg>
    