<svg width="30" height="30" viewBox="0 0 30 30" fill="none" xmlns="http://www.w3.org/2000/svg">
    <circle cx="14.9999" cy="15" r="15" fill="#0C3877" />
    <path fill-rule="evenodd" clip-rule="evenodd"
        d="M22.402 19.5979H7.59511L6.92212 16.9974H23.076L22.402 19.5979Z" fill="white" />
    <path fill-rule="evenodd" clip-rule="evenodd"
        d="M19.889 27.6927H10.1078L7.99237 20.5517H22.0044L19.889 27.6927Z" fill="white" />
    <path
        d="M21.1087 3.70686C20.8761 3.58274 20.6203 3.5038 20.3559 3.47457C20.0914 3.44534 19.8236 3.46638 19.5677 3.5365C19.3117 3.60662 19.0727 3.72443 18.8643 3.88321C18.6558 4.04199 18.4821 4.23861 18.353 4.46183L15.0582 11.6374L12.4382 8.88963C12.2513 8.70402 12.0277 8.55598 11.7805 8.45413C11.5333 8.35229 11.2674 8.29868 10.9983 8.29644C10.7293 8.29419 10.4624 8.34336 10.2134 8.44107C9.96439 8.53878 9.73815 8.68308 9.5479 8.86554C9.35764 9.048 9.20718 9.26497 9.1053 9.5038C9.00341 9.74262 8.95215 9.99851 8.95448 10.2565C8.95682 10.5146 9.01272 10.7696 9.11892 11.0067C9.22511 11.2437 9.37948 11.4582 9.57301 11.6374L13.6256 15.524C14.0086 15.8923 14.5253 16.0944 15.0582 16.0944L15.3388 16.075C15.6494 16.0333 15.9457 15.9231 16.2043 15.7529C16.4629 15.5828 16.6768 15.3574 16.8292 15.0946L21.8949 6.34974C22.0243 6.1267 22.1065 5.88141 22.137 5.62789C22.1675 5.37436 22.1456 5.11755 22.0726 4.87214C21.9996 4.62672 21.8769 4.3975 21.7115 4.19756C21.5461 3.99762 21.3413 3.83088 21.1087 3.70686Z"
        fill="white" />
</svg>
    