<svg width="58" height="58" viewBox="0 0 58 58" fill="none" xmlns="http://www.w3.org/2000/svg">
<circle cx="29" cy="29" r="29" fill="#FFC37C"/>
<path fill-rule="evenodd" clip-rule="evenodd" d="M45.0965 34.7133H12.4564L10.9729 30.3821H46.5823L45.0965 34.7133Z" fill="white"/>
<path fill-rule="evenodd" clip-rule="evenodd" d="M39.5571 48.1954H17.9955L13.3323 36.3018H44.2203L39.5571 48.1954Z" fill="white"/>
<path d="M42.246 8.24607C41.7333 8.03933 41.1693 7.90786 40.5864 7.85917C40.0035 7.81048 39.4131 7.84553 38.8489 7.96232C38.2847 8.0791 37.7578 8.27533 37.2983 8.53978C36.8389 8.80423 36.4559 9.13171 36.1712 9.5035L28.9083 21.4548L23.1328 16.8782C22.7207 16.569 22.2278 16.3225 21.6829 16.1528C21.1379 15.9832 20.5518 15.8939 19.9587 15.8902C19.3656 15.8865 18.7774 15.9683 18.2285 16.1311C17.6795 16.2938 17.1808 16.5342 16.7614 16.8381C16.342 17.1419 16.0103 17.5033 15.7857 17.9011C15.5612 18.2989 15.4481 18.7251 15.4533 19.1548C15.4584 19.5846 15.5817 20.0093 15.8158 20.4042C16.0499 20.7991 16.3902 21.1562 16.8168 21.4548L25.7503 27.928C26.5945 28.5414 27.7335 28.878 28.9083 28.878L29.5269 28.8456C30.2116 28.7762 30.8646 28.5926 31.4347 28.3093C32.0048 28.0259 32.4763 27.6506 32.8122 27.2127L43.9791 12.6479C44.2642 12.2764 44.4455 11.8679 44.5127 11.4456C44.5799 11.0233 44.5317 10.5956 44.3707 10.1869C44.2098 9.77813 43.9393 9.39635 43.5748 9.06334C43.2102 8.73034 42.7587 8.45262 42.246 8.24607Z" fill="white"/>
</svg>
