<svg width="50" height="51" viewBox="0 0 50 51" fill="none" xmlns="http://www.w3.org/2000/svg">
    <path
        d="M35 11.7881C35 12.0561 34.8915 12.3131 34.6984 12.5026C34.5053 12.6921 34.2434 12.7986 33.9703 12.7986H30.8813V15.8298C30.8813 16.0978 30.7728 16.3548 30.5797 16.5443C30.3866 16.7338 30.1247 16.8402 29.8517 16.8402C29.5786 16.8402 29.3167 16.7338 29.1236 16.5443C28.9305 16.3548 28.822 16.0978 28.822 15.8298V12.7986H25.733C25.4599 12.7986 25.198 12.6921 25.0049 12.5026C24.8118 12.3131 24.7033 12.0561 24.7033 11.7881C24.7033 11.5202 24.8118 11.2632 25.0049 11.0737C25.198 10.8842 25.4599 10.7777 25.733 10.7777H28.822V7.7465C28.822 7.47852 28.9305 7.22152 29.1236 7.03203C29.3167 6.84254 29.5786 6.73608 29.8517 6.73608C30.1247 6.73608 30.3866 6.84254 30.5797 7.03203C30.7728 7.22152 30.8813 7.47852 30.8813 7.7465V10.7777H33.9703C34.2434 10.7777 34.5053 10.8842 34.6984 11.0737C34.8915 11.2632 35 11.5202 35 11.7881ZM18.8685 4.71526H20.5846V6.39928C20.5846 6.66726 20.6931 6.92426 20.8862 7.11375C21.0793 7.30324 21.3412 7.40969 21.6143 7.40969C21.8874 7.40969 22.1493 7.30324 22.3424 7.11375C22.5355 6.92426 22.644 6.66726 22.644 6.39928V4.71526H24.3601C24.6332 4.71526 24.8951 4.60881 25.0882 4.41932C25.2813 4.22983 25.3897 3.97282 25.3897 3.70485C25.3897 3.43687 25.2813 3.17987 25.0882 2.99038C24.8951 2.80089 24.6332 2.69443 24.3601 2.69443H22.644V1.01041C22.644 0.742435 22.5355 0.485432 22.3424 0.295943C22.1493 0.106454 21.8874 0 21.6143 0C21.3412 0 21.0793 0.106454 20.8862 0.295943C20.6931 0.485432 20.5846 0.742435 20.5846 1.01041V2.69443H18.8685C18.5954 2.69443 18.3335 2.80089 18.1404 2.99038C17.9473 3.17987 17.8388 3.43687 17.8388 3.70485C17.8388 3.97282 17.9473 4.22983 18.1404 4.41932C18.3335 4.60881 18.5954 4.71526 18.8685 4.71526ZM31.0958 21.6026C31.2156 21.7396 31.2958 21.9056 31.3281 22.0832C31.3604 22.2609 31.3436 22.4439 31.2795 22.613C30.3477 25.1102 28.7898 27.3368 26.7496 29.0872C24.7095 30.8376 22.2528 32.0555 19.6065 32.6284C16.9601 33.2012 14.2093 33.1106 11.608 32.3649C9.00676 31.6192 6.63885 30.2424 4.72291 28.3617C2.80697 26.481 1.40475 24.1569 0.6457 21.604C-0.113352 19.0512 -0.204771 16.3518 0.379882 13.7551C0.964536 11.1584 2.20642 8.74809 3.99088 6.74669C5.77535 4.74528 8.04488 3.21728 10.59 2.30374C10.7613 2.24255 10.9462 2.22712 11.1256 2.25903C11.3051 2.29094 11.4726 2.36904 11.6112 2.48534C11.7498 2.60164 11.8545 2.75198 11.9144 2.92098C11.9744 3.08997 11.9876 3.27157 11.9526 3.44719C11.5113 5.64485 11.5713 7.91113 12.1282 10.0833C12.6852 12.2556 13.7253 14.2799 15.1738 16.0109C16.6224 17.742 18.4436 19.1369 20.5066 20.0955C22.5696 21.0542 24.8233 21.5527 27.1059 21.5555C28.1157 21.5558 29.1232 21.4599 30.1142 21.2692C30.2933 21.2344 30.4785 21.2469 30.651 21.3055C30.8235 21.3641 30.977 21.4667 31.0958 21.6026ZM28.6298 23.5123C28.1241 23.555 27.6161 23.5763 27.1059 23.5763C22.4651 23.5709 18.0159 21.7595 14.7344 18.5394C11.4529 15.3192 9.60693 10.9533 9.60147 6.39928C9.60147 5.89969 9.62321 5.40122 9.66669 4.90387C7.70026 5.90151 6.00142 7.34033 4.70821 9.1034C3.415 10.8665 2.5639 12.9041 2.22408 15.0506C1.88426 17.1971 2.06529 19.3921 2.75247 21.4571C3.43966 23.522 4.61361 25.3988 6.17892 26.9348C7.74424 28.4709 9.65677 29.6229 11.7611 30.2972C13.8654 30.9715 16.1022 31.1492 18.2897 30.8157C20.4771 30.4822 22.5535 29.6471 24.3502 28.378C26.1469 27.109 27.6131 25.442 28.6298 23.5123Z"
        fill="white" />
</svg>
    