<svg width="19" height="15" viewBox="0 0 23 23" fill="none" xmlns="http://www.w3.org/2000/svg">
    <path
        d="M9.58545 0L11.6581 0.00625C12.475 0.12375 13.1911 0.58125 13.7812 1.35375C14.2632 1.98375 14.5162 2.71625 14.5309 3.51375H20.2797C20.4717 3.51507 20.6553 3.60704 20.7904 3.76946C20.9254 3.93188 21.0008 4.15147 21 4.38C21.0004 4.4931 20.9821 4.60519 20.9461 4.70987C20.9102 4.81455 20.8572 4.90977 20.7903 4.9901C20.7234 5.07042 20.6439 5.13427 20.5563 5.17801C20.4687 5.22174 20.3747 5.24451 20.2797 5.245L18.3519 5.24375V19.7775C18.3519 22.9562 17.3554 25 15.1588 25H5.68995C3.49335 25 2.51265 22.9675 2.51265 19.7775V5.24375H0.7203C0.528794 5.24276 0.345431 5.15141 0.210409 4.98973C0.075386 4.82805 -0.000278992 4.60924 7.73054e-07 4.38125C7.73054e-07 3.9025 0.322351 3.51625 0.7203 3.51625H6.4638C6.4785 2.87375 6.67905 2.2225 7.0455 1.57875C7.5915 0.61875 8.4441 0.0925 9.58545 0ZM16.9113 5.24375H3.9522V19.7775C3.9522 22.1375 4.4982 23.27 5.68995 23.27H15.1588C16.3548 23.27 16.9123 22.1275 16.9123 19.7775L16.9113 5.24375ZM7.0518 7.925C7.4487 7.925 7.77105 8.3125 7.77105 8.79V18.8525C7.77146 18.9656 7.75316 19.0777 7.71719 19.1824C7.68121 19.2871 7.62827 19.3823 7.56138 19.4626C7.4945 19.5429 7.41498 19.6068 7.32736 19.6505C7.23975 19.6942 7.14575 19.717 7.05075 19.7175C6.85906 19.7162 6.67565 19.6243 6.54079 19.4622C6.40594 19.3 6.33066 19.0807 6.3315 18.8525V8.79C6.3315 8.3125 6.6549 7.925 7.0518 7.925ZM9.9141 7.925C10.3131 7.925 10.6344 8.3125 10.6344 8.79V18.8525C10.6348 18.9656 10.6165 19.0777 10.5805 19.1824C10.5446 19.2871 10.4916 19.3823 10.4247 19.4626C10.3578 19.5429 10.2783 19.6068 10.1907 19.6505C10.1031 19.6942 10.0091 19.717 9.9141 19.7175C9.72241 19.7162 9.539 19.6243 9.40414 19.4622C9.26928 19.3 9.19401 19.0807 9.19485 18.8525V8.79C9.19485 8.3125 9.5172 7.925 9.9141 7.925ZM12.7785 7.925C13.1754 7.925 13.4977 8.3125 13.4977 8.79V18.8525C13.4986 19.0807 13.4233 19.3 13.2885 19.4622C13.1536 19.6243 12.9702 19.7162 12.7785 19.7175C12.6835 19.717 12.5895 19.6942 12.5019 19.6505C12.4143 19.6068 12.3347 19.5429 12.2679 19.4626C12.201 19.3823 12.148 19.2871 12.1121 19.1824C12.0761 19.0777 12.0578 18.9656 12.0582 18.8525V8.79C12.0576 8.56168 12.1331 8.34241 12.2682 8.18027C12.4032 8.01812 12.5867 7.92632 12.7785 7.925ZM9.6348 1.7275C8.9607 1.78375 8.51655 2.0575 8.2341 2.555C8.0262 2.91875 7.92225 3.23375 7.90545 3.515L13.0903 3.51375C13.0756 3.15 12.9549 2.83 12.7207 2.52375C12.3574 2.04875 11.9542 1.79125 11.5731 1.73L9.6348 1.7275Z"
        fill="#FF7D7C" />
</svg>