<svg width="12" height="11" viewBox="0 0 12 11" fill="none" xmlns="http://www.w3.org/2000/svg">
    <path
        d="M7.20288 5.98919L7.20282 5.98924C6.97724 6.18306 6.83333 6.46325 6.83333 6.77375V9.85238C6.8333 9.85255 6.83322 9.85291 6.83303 9.85348C6.83257 9.85487 6.83117 9.85841 6.82739 9.86366C6.81961 9.87448 6.80174 9.89209 6.76876 9.90613L6.76737 9.90672L5.43404 10.4793L5.43396 10.4793C5.35894 10.5116 5.27643 10.5036 5.21712 10.4722C5.18892 10.4572 5.17492 10.4416 5.16969 10.4338C5.1659 10.4282 5.16667 10.4275 5.16667 10.4269V6.77375L5.16667 6.77343C5.16657 6.62111 5.13152 6.47253 5.06621 6.33702C5.00108 6.20189 4.90814 6.08433 4.79678 5.9889C4.79672 5.98885 4.79666 5.9888 4.79661 5.98875L0.716504 2.48426C0.716487 2.48424 0.716469 2.48423 0.716451 2.48421C0.566459 2.35532 0.5 2.19775 0.5 2.05298V0.573173C0.5 0.573112 0.500001 0.573063 0.500002 0.573023C0.500005 0.572911 0.500011 0.572883 0.500007 0.572918C0.500001 0.572963 0.499995 0.572981 0.500007 0.572934C0.500012 0.572912 0.500214 0.572027 0.501108 0.570205C0.502927 0.566503 0.508275 0.557735 0.520978 0.546817C0.547182 0.524297 0.59696 0.50001 0.666667 0.50001L11.3333 0.500017L11.336 0.500004C11.3664 0.499844 11.3954 0.504971 11.4206 0.513919C11.4459 0.522866 11.4648 0.534634 11.4776 0.545655C11.4903 0.556567 11.496 0.565708 11.4982 0.570343C11.4996 0.573213 11.4999 0.574845 11.5 0.575413L11.5 2.05241C11.5 2.05259 11.5 2.05278 11.5 2.05297C11.4998 2.12679 11.483 2.20206 11.4477 2.27513C11.4123 2.3487 11.3579 2.42043 11.2839 2.48391L11.2835 2.48421L7.20288 5.98919Z"
        stroke="#5B6762" />
</svg>
    