<svg width="50" height="51" viewBox="0 0 50 51" fill="none" xmlns="http://www.w3.org/2000/svg">
    <path
        d="M16.8 4.93333V1.23333C16.8 0.906233 16.9264 0.59253 17.1515 0.361235C17.3765 0.12994 17.6817 0 18 0C18.3183 0 18.6235 0.12994 18.8485 0.361235C19.0736 0.59253 19.2 0.906233 19.2 1.23333V4.93333C19.2 5.26043 19.0736 5.57414 18.8485 5.80543C18.6235 6.03673 18.3183 6.16667 18 6.16667C17.6817 6.16667 17.3765 6.03673 17.1515 5.80543C16.9264 5.57414 16.8 5.26043 16.8 4.93333ZM27.6 18.5C27.6 20.4514 27.037 22.3591 25.9821 23.9816C24.9272 25.6042 23.4279 26.8688 21.6738 27.6156C19.9196 28.3624 17.9894 28.5578 16.1271 28.1771C14.2649 27.7964 12.5544 26.8567 11.2118 25.4768C9.86919 24.0969 8.95488 22.3388 8.58446 20.4249C8.21404 18.5109 8.40416 16.5271 9.13076 14.7242C9.85736 12.9213 11.0878 11.3803 12.6665 10.2962C14.2452 9.212 16.1013 8.63333 18 8.63333C20.5452 8.63619 22.9854 9.67663 24.7852 11.5264C26.5849 13.3761 27.5972 15.8841 27.6 18.5ZM25.2 18.5C25.2 17.0364 24.7777 15.6057 23.9866 14.3888C23.1954 13.1719 22.0709 12.2234 20.7553 11.6633C19.4397 11.1032 17.992 10.9567 16.5954 11.2422C15.1987 11.5277 13.9158 12.2325 12.9088 13.2674C11.9019 14.3023 11.2162 15.6209 10.9383 17.0563C10.6605 18.4918 10.8031 19.9797 11.3481 21.3319C11.893 22.684 12.8159 23.8398 13.9999 24.6529C15.1839 25.466 16.576 25.9 18 25.9C19.909 25.898 21.7391 25.1177 23.089 23.7303C24.4388 22.343 25.198 20.462 25.2 18.5ZM7.551 9.50592C7.77617 9.73734 8.08156 9.86735 8.4 9.86735C8.71844 9.86735 9.02383 9.73734 9.249 9.50592C9.47417 9.27449 9.60067 8.96062 9.60067 8.63333C9.60067 8.30605 9.47417 7.99217 9.249 7.76075L6.849 5.29408C6.62383 5.06266 6.31844 4.93265 6 4.93265C5.68156 4.93265 5.37617 5.06266 5.151 5.29408C4.92583 5.52551 4.79933 5.83938 4.79933 6.16667C4.79933 6.49395 4.92583 6.80783 5.151 7.03925L7.551 9.50592ZM7.551 27.4941L5.151 29.9608C4.92583 30.1922 4.79933 30.5061 4.79933 30.8333C4.79933 31.1606 4.92583 31.4745 5.151 31.7059C5.37617 31.9373 5.68156 32.0674 6 32.0674C6.31844 32.0674 6.62383 31.9373 6.849 31.7059L9.249 29.2393C9.36049 29.1247 9.44893 28.9886 9.50927 28.8389C9.56961 28.6892 9.60067 28.5287 9.60067 28.3667C9.60067 28.2046 9.56961 28.0441 9.50927 27.8944C9.44893 27.7447 9.36049 27.6087 9.249 27.4941C9.13751 27.3795 9.00515 27.2886 8.85948 27.2266C8.7138 27.1646 8.55767 27.1326 8.4 27.1326C8.24233 27.1326 8.0862 27.1646 7.94052 27.2266C7.79485 27.2886 7.66249 27.3795 7.551 27.4941ZM27.6 9.86667C27.7576 9.86679 27.9137 9.835 28.0594 9.7731C28.2051 9.7112 28.3375 9.62041 28.449 9.50592L30.849 7.03925C31.0742 6.80783 31.2007 6.49395 31.2007 6.16667C31.2007 5.83938 31.0742 5.52551 30.849 5.29408C30.6238 5.06266 30.3184 4.93265 30 4.93265C29.6816 4.93265 29.3762 5.06266 29.151 5.29408L26.751 7.76075C26.583 7.93324 26.4685 8.15308 26.4222 8.39246C26.3758 8.63183 26.3996 8.87996 26.4905 9.10544C26.5814 9.33092 26.7353 9.52361 26.9328 9.65912C27.1303 9.79463 27.3625 9.86686 27.6 9.86667ZM28.449 27.4941C28.2238 27.2627 27.9184 27.1326 27.6 27.1326C27.2816 27.1326 26.9762 27.2627 26.751 27.4941C26.5258 27.7255 26.3993 28.0394 26.3993 28.3667C26.3993 28.6939 26.5258 29.0078 26.751 29.2393L29.151 31.7059C29.2625 31.8205 29.3949 31.9114 29.5405 31.9734C29.6862 32.0354 29.8423 32.0674 30 32.0674C30.1577 32.0674 30.3138 32.0354 30.4595 31.9734C30.6051 31.9114 30.7375 31.8205 30.849 31.7059C30.9605 31.5913 31.0489 31.4553 31.1093 31.3056C31.1696 31.1559 31.2007 30.9954 31.2007 30.8333C31.2007 30.6713 31.1696 30.5108 31.1093 30.3611C31.0489 30.2114 30.9605 30.0753 30.849 29.9608L28.449 27.4941ZM6 18.5C6 18.1729 5.87357 17.8592 5.64853 17.6279C5.42348 17.3966 5.11826 17.2667 4.8 17.2667H1.2C0.88174 17.2667 0.576515 17.3966 0.351472 17.6279C0.126428 17.8592 0 18.1729 0 18.5C0 18.8271 0.126428 19.1408 0.351472 19.3721C0.576515 19.6034 0.88174 19.7333 1.2 19.7333H4.8C5.11826 19.7333 5.42348 19.6034 5.64853 19.3721C5.87357 19.1408 6 18.8271 6 18.5ZM18 30.8333C17.6817 30.8333 17.3765 30.9633 17.1515 31.1946C16.9264 31.4259 16.8 31.7396 16.8 32.0667V35.7667C16.8 36.0938 16.9264 36.4075 17.1515 36.6388C17.3765 36.8701 17.6817 37 18 37C18.3183 37 18.6235 36.8701 18.8485 36.6388C19.0736 36.4075 19.2 36.0938 19.2 35.7667V32.0667C19.2 31.7396 19.0736 31.4259 18.8485 31.1946C18.6235 30.9633 18.3183 30.8333 18 30.8333ZM34.8 17.2667H31.2C30.8817 17.2667 30.5765 17.3966 30.3515 17.6279C30.1264 17.8592 30 18.1729 30 18.5C30 18.8271 30.1264 19.1408 30.3515 19.3721C30.5765 19.6034 30.8817 19.7333 31.2 19.7333H34.8C35.1183 19.7333 35.4235 19.6034 35.6485 19.3721C35.8736 19.1408 36 18.8271 36 18.5C36 18.1729 35.8736 17.8592 35.6485 17.6279C35.4235 17.3966 35.1183 17.2667 34.8 17.2667Z"
        fill="white" />
</svg>
    